<mxfile host="app.diagrams.net" modified="2024-06-23T09:01:31.324Z" agent="Mozilla/5.0 (Windows NT 10.0; Win64; x64) AppleWebKit/537.36 (KHTML, like Gecko) Chrome/126.0.0.0 Safari/537.36" etag="Ya_zctktsCwjT-ZyO3Fp" version="24.6.2" type="device">
  <diagram name="Seite-1" id="O_rDLoo9vZgB8bspDNc1">
    <mxGraphModel dx="1173" dy="1090" grid="1" gridSize="10" guides="1" tooltips="1" connect="1" arrows="1" fold="1" page="1" pageScale="1" pageWidth="827" pageHeight="1169" math="0" shadow="0">
      <root>
        <mxCell id="0" />
        <mxCell id="1" parent="0" />
        <mxCell id="h3XN7zHFyvqdcPk0H10Z-1" value="&lt;p style=&quot;margin:0px;margin-top:4px;margin-left:10px;text-align:left;&quot;&gt;&lt;b&gt;deployment&lt;/b&gt;&lt;/p&gt;" style="html=1;shape=mxgraph.sysml.package;html=1;overflow=fill;whiteSpace=wrap;labelX=90;" vertex="1" parent="1">
          <mxGeometry x="20" y="160" width="980" height="480" as="geometry" />
        </mxCell>
        <mxCell id="h3XN7zHFyvqdcPk0H10Z-3" value="&lt;p style=&quot;margin:0px;margin-top:4px;text-align:center;&quot;&gt;&lt;b&gt;PoeticPulse development&lt;/b&gt;&lt;/p&gt;&lt;hr&gt;&lt;p style=&quot;margin: 4px 0px 0px; text-align: center;&quot;&gt;&lt;br&gt;&lt;/p&gt;" style="shape=rect;html=1;overflow=fill;whiteSpace=wrap;" vertex="1" parent="1">
          <mxGeometry x="40" y="200" width="310" height="250" as="geometry" />
        </mxCell>
        <mxCell id="h3XN7zHFyvqdcPk0H10Z-4" value="&lt;p style=&quot;margin:0px;margin-top:4px;text-align:center;&quot;&gt;&lt;b&gt;GitHub&lt;/b&gt;&lt;/p&gt;&lt;hr&gt;&lt;p style=&quot;margin: 4px 0px 0px; text-align: center;&quot;&gt;&lt;br&gt;&lt;/p&gt;" style="shape=rect;html=1;overflow=fill;whiteSpace=wrap;" vertex="1" parent="1">
          <mxGeometry x="380" y="200" width="410" height="250" as="geometry" />
        </mxCell>
        <mxCell id="h3XN7zHFyvqdcPk0H10Z-6" value="&lt;p style=&quot;margin:13px;&quot;&gt;&lt;b&gt;PoeticPulse-be&lt;/b&gt;&lt;/p&gt;" style="shape=rect;html=1;overflow=fill;whiteSpace=wrap;align=center;" vertex="1" parent="1">
          <mxGeometry x="201" y="240" width="130" height="40" as="geometry" />
        </mxCell>
        <mxCell id="h3XN7zHFyvqdcPk0H10Z-7" value="&lt;p style=&quot;margin:13px;&quot;&gt;&lt;b&gt;PoeticPulse-ui&lt;/b&gt;&lt;/p&gt;" style="shape=rect;html=1;overflow=fill;whiteSpace=wrap;align=center;" vertex="1" parent="1">
          <mxGeometry x="60" y="240" width="130" height="40" as="geometry" />
        </mxCell>
        <mxCell id="h3XN7zHFyvqdcPk0H10Z-9" value="&lt;p style=&quot;margin:13px;&quot;&gt;&lt;b&gt;Docker Engine&lt;/b&gt;&lt;/p&gt;" style="shape=rect;html=1;overflow=fill;whiteSpace=wrap;align=center;" vertex="1" parent="1">
          <mxGeometry x="130" y="370" width="130" height="40" as="geometry" />
        </mxCell>
        <mxCell id="h3XN7zHFyvqdcPk0H10Z-10" value="&lt;p style=&quot;margin:13px;&quot;&gt;&lt;b&gt;Repository&lt;/b&gt;&lt;/p&gt;" style="shape=rect;html=1;overflow=fill;whiteSpace=wrap;align=center;" vertex="1" parent="1">
          <mxGeometry x="414" y="370" width="130" height="40" as="geometry" />
        </mxCell>
        <mxCell id="h3XN7zHFyvqdcPk0H10Z-11" value="&lt;p style=&quot;margin:13px;&quot;&gt;&lt;b&gt;GitHub Actions&lt;/b&gt;&lt;/p&gt;" style="shape=rect;html=1;overflow=fill;whiteSpace=wrap;align=center;" vertex="1" parent="1">
          <mxGeometry x="610" y="370" width="130" height="40" as="geometry" />
        </mxCell>
        <mxCell id="h3XN7zHFyvqdcPk0H10Z-12" value="&lt;p style=&quot;margin:13px;&quot;&gt;&lt;b&gt;Docker Engine&lt;/b&gt;&lt;/p&gt;" style="shape=rect;html=1;overflow=fill;whiteSpace=wrap;align=center;" vertex="1" parent="1">
          <mxGeometry x="610" y="260" width="130" height="40" as="geometry" />
        </mxCell>
        <mxCell id="h3XN7zHFyvqdcPk0H10Z-13" value="&lt;p style=&quot;margin:0px;margin-top:4px;text-align:center;&quot;&gt;&lt;b&gt;Target environment&lt;/b&gt;&lt;/p&gt;&lt;hr&gt;&lt;p style=&quot;margin: 4px 0px 0px; text-align: center;&quot;&gt;&lt;br&gt;&lt;/p&gt;" style="shape=rect;html=1;overflow=fill;whiteSpace=wrap;" vertex="1" parent="1">
          <mxGeometry x="380" y="490" width="410" height="120" as="geometry" />
        </mxCell>
        <mxCell id="h3XN7zHFyvqdcPk0H10Z-14" value="&lt;p style=&quot;margin:13px;&quot;&gt;&lt;b&gt;Docker Engine&lt;/b&gt;&lt;/p&gt;" style="shape=rect;html=1;overflow=fill;whiteSpace=wrap;align=center;" vertex="1" parent="1">
          <mxGeometry x="610" y="545" width="130" height="40" as="geometry" />
        </mxCell>
        <mxCell id="h3XN7zHFyvqdcPk0H10Z-15" value="push builds" style="edgeStyle=none;html=1;endArrow=open;endSize=12;dashed=1;verticalAlign=bottom;rounded=0;entryX=0.5;entryY=0;entryDx=0;entryDy=0;exitX=0.5;exitY=1;exitDx=0;exitDy=0;fontSize=12;" edge="1" parent="1" source="h3XN7zHFyvqdcPk0H10Z-7" target="h3XN7zHFyvqdcPk0H10Z-9">
          <mxGeometry x="0.0692" y="-3" width="160" relative="1" as="geometry">
            <mxPoint x="270" y="100" as="sourcePoint" />
            <mxPoint x="430" y="100" as="targetPoint" />
            <mxPoint as="offset" />
          </mxGeometry>
        </mxCell>
        <mxCell id="h3XN7zHFyvqdcPk0H10Z-16" value="push builds" style="edgeStyle=none;html=1;endArrow=open;endSize=12;dashed=1;verticalAlign=bottom;rounded=0;entryX=0.669;entryY=0;entryDx=0;entryDy=0;exitX=0.5;exitY=1;exitDx=0;exitDy=0;fontSize=12;entryPerimeter=0;" edge="1" parent="1">
          <mxGeometry x="-0.0109" y="9" width="160" relative="1" as="geometry">
            <mxPoint x="266" y="281" as="sourcePoint" />
            <mxPoint x="216.97000000000003" y="371" as="targetPoint" />
            <mxPoint as="offset" />
          </mxGeometry>
        </mxCell>
        <mxCell id="h3XN7zHFyvqdcPk0H10Z-17" value="commits" style="edgeStyle=none;html=1;endArrow=open;endSize=12;dashed=1;verticalAlign=bottom;rounded=0;entryX=0.662;entryY=-0.075;entryDx=0;entryDy=0;exitX=0.75;exitY=1;exitDx=0;exitDy=0;fontSize=12;entryPerimeter=0;" edge="1" parent="1" source="h3XN7zHFyvqdcPk0H10Z-6" target="h3XN7zHFyvqdcPk0H10Z-10">
          <mxGeometry x="-0.0109" y="9" width="160" relative="1" as="geometry">
            <mxPoint x="276" y="291" as="sourcePoint" />
            <mxPoint x="226.97000000000003" y="381" as="targetPoint" />
            <mxPoint as="offset" />
          </mxGeometry>
        </mxCell>
        <mxCell id="h3XN7zHFyvqdcPk0H10Z-18" value="commits" style="edgeStyle=none;html=1;endArrow=open;endSize=12;dashed=1;verticalAlign=bottom;rounded=0;entryX=0.154;entryY=-0.05;entryDx=0;entryDy=0;exitX=0.75;exitY=1;exitDx=0;exitDy=0;fontSize=12;entryPerimeter=0;" edge="1" parent="1" source="h3XN7zHFyvqdcPk0H10Z-7" target="h3XN7zHFyvqdcPk0H10Z-10">
          <mxGeometry x="0.344" y="-11" width="160" relative="1" as="geometry">
            <mxPoint x="309" y="290" as="sourcePoint" />
            <mxPoint x="510" y="377" as="targetPoint" />
            <mxPoint as="offset" />
          </mxGeometry>
        </mxCell>
        <mxCell id="h3XN7zHFyvqdcPk0H10Z-20" value="executes" style="edgeStyle=none;html=1;endArrow=open;endSize=12;dashed=1;verticalAlign=bottom;rounded=0;exitX=1;exitY=0.5;exitDx=0;exitDy=0;fontSize=12;" edge="1" parent="1" source="h3XN7zHFyvqdcPk0H10Z-10" target="h3XN7zHFyvqdcPk0H10Z-11">
          <mxGeometry x="-0.0109" y="9" width="160" relative="1" as="geometry">
            <mxPoint x="740" y="40" as="sourcePoint" />
            <mxPoint x="941" y="127" as="targetPoint" />
            <mxPoint as="offset" />
          </mxGeometry>
        </mxCell>
        <mxCell id="h3XN7zHFyvqdcPk0H10Z-21" value="uses" style="edgeStyle=none;html=1;endArrow=open;endSize=12;dashed=1;verticalAlign=bottom;rounded=0;fontSize=12;entryX=0.5;entryY=1;entryDx=0;entryDy=0;" edge="1" parent="1" source="h3XN7zHFyvqdcPk0H10Z-11" target="h3XN7zHFyvqdcPk0H10Z-12">
          <mxGeometry x="-0.1429" width="160" relative="1" as="geometry">
            <mxPoint x="554" y="400" as="sourcePoint" />
            <mxPoint x="620" y="400" as="targetPoint" />
            <mxPoint as="offset" />
          </mxGeometry>
        </mxCell>
        <mxCell id="h3XN7zHFyvqdcPk0H10Z-22" value="uses" style="edgeStyle=none;html=1;endArrow=open;endSize=12;dashed=1;verticalAlign=bottom;rounded=0;fontSize=12;entryX=0.75;entryY=1;entryDx=0;entryDy=0;exitX=0.25;exitY=1;exitDx=0;exitDy=0;" edge="1" parent="1" source="h3XN7zHFyvqdcPk0H10Z-11" target="h3XN7zHFyvqdcPk0H10Z-10">
          <mxGeometry x="-0.042" width="160" relative="1" as="geometry">
            <mxPoint x="685" y="380" as="sourcePoint" />
            <mxPoint x="685" y="310" as="targetPoint" />
            <mxPoint as="offset" />
            <Array as="points">
              <mxPoint x="643" y="440" />
              <mxPoint x="512" y="440" />
            </Array>
          </mxGeometry>
        </mxCell>
        <mxCell id="h3XN7zHFyvqdcPk0H10Z-23" value="push builds" style="edgeStyle=none;html=1;endArrow=open;endSize=12;dashed=1;verticalAlign=bottom;rounded=0;exitX=0.75;exitY=1;exitDx=0;exitDy=0;fontSize=12;entryX=0.75;entryY=0;entryDx=0;entryDy=0;" edge="1" parent="1" source="h3XN7zHFyvqdcPk0H10Z-11" target="h3XN7zHFyvqdcPk0H10Z-14">
          <mxGeometry x="0.037" width="160" relative="1" as="geometry">
            <mxPoint x="554" y="400" as="sourcePoint" />
            <mxPoint x="620" y="400" as="targetPoint" />
            <mxPoint as="offset" />
          </mxGeometry>
        </mxCell>
        <mxCell id="h3XN7zHFyvqdcPk0H10Z-24" value="&lt;p style=&quot;margin:0px;margin-top:4px;text-align:center;&quot;&gt;DockerHub&lt;/p&gt;&lt;hr&gt;&lt;p style=&quot;margin: 4px 0px 0px; text-align: center;&quot;&gt;&lt;br&gt;&lt;/p&gt;" style="shape=rect;html=1;overflow=fill;whiteSpace=wrap;" vertex="1" parent="1">
          <mxGeometry x="810" y="310" width="170" height="140" as="geometry" />
        </mxCell>
        <mxCell id="h3XN7zHFyvqdcPk0H10Z-25" value="&lt;p style=&quot;margin:13px;&quot;&gt;&lt;b&gt;Docker Images&lt;/b&gt;&lt;/p&gt;" style="shape=rect;html=1;overflow=fill;whiteSpace=wrap;align=center;" vertex="1" parent="1">
          <mxGeometry x="830" y="370" width="130" height="40" as="geometry" />
        </mxCell>
        <mxCell id="h3XN7zHFyvqdcPk0H10Z-26" value="pushes&lt;div&gt;Images&lt;/div&gt;" style="edgeStyle=none;html=1;endArrow=open;endSize=12;dashed=1;verticalAlign=bottom;rounded=0;exitX=1;exitY=0.5;exitDx=0;exitDy=0;fontSize=12;entryX=0;entryY=0.5;entryDx=0;entryDy=0;" edge="1" parent="1" target="h3XN7zHFyvqdcPk0H10Z-25">
          <mxGeometry x="-0.16" y="-20" width="160" relative="1" as="geometry">
            <mxPoint x="744" y="389.5" as="sourcePoint" />
            <mxPoint x="810" y="389.5" as="targetPoint" />
            <mxPoint as="offset" />
          </mxGeometry>
        </mxCell>
      </root>
    </mxGraphModel>
  </diagram>
</mxfile>
